<mxfile host="65bd71144e" scale="0.9" border="0">
    <diagram id="CEHOHmIj44bNjhljghE9" name="Create a ClipBoard">
        <mxGraphModel dx="1730" dy="1423" grid="0" gridSize="12" guides="1" tooltips="1" connect="1" arrows="1" fold="1" page="1" pageScale="1" pageWidth="1600" pageHeight="900" background="#ffffff" math="0" shadow="1">
            <root>
                <object label="" id="0">
                    <mxCell/>
                </object>
                <mxCell id="1" parent="0"/>
                <mxCell id="13" style="edgeStyle=none;html=1;entryX=0;entryY=0;entryDx=0;entryDy=0;fontSize=33;strokeWidth=15;strokeColor=#000000;rounded=1;" parent="1" source="2" target="4" edge="1">
                    <mxGeometry relative="1" as="geometry"/>
                </mxCell>
                <mxCell id="2" value="&lt;font style=&quot;font-size: 32px;&quot;&gt;CLIENT 1&lt;/font&gt;" style="whiteSpace=wrap;html=1;fillColor=#114174;strokeColor=#36393d;rounded=1;" parent="1" vertex="1">
                    <mxGeometry x="50" y="50" width="200" height="200" as="geometry"/>
                </mxCell>
                <mxCell id="20" style="edgeStyle=none;html=1;entryX=1;entryY=0;entryDx=0;entryDy=0;shadow=0;strokeColor=#10739e;strokeWidth=15;fontSize=33;fillColor=#b1ddf0;rounded=1;" parent="1" source="3" target="4" edge="1">
                    <mxGeometry relative="1" as="geometry"/>
                </mxCell>
                <mxCell id="3" value="&lt;font style=&quot;font-size: 32px;&quot;&gt;CLIENT 2&lt;/font&gt;" style="whiteSpace=wrap;html=1;fontSize=22;fillColor=#60a917;fontColor=#ffffff;strokeColor=#FFFFFF;gradientColor=none;rounded=1;" parent="1" vertex="1">
                    <mxGeometry x="1350" y="50" width="200" height="200" as="geometry"/>
                </mxCell>
                <mxCell id="22" style="edgeStyle=none;html=1;exitX=1;exitY=1;exitDx=0;exitDy=0;entryX=0.5;entryY=1;entryDx=0;entryDy=0;entryPerimeter=0;shadow=0;strokeColor=#996185;strokeWidth=15;fontSize=33;fillColor=#e6d0de;gradientColor=#d5739d;rounded=1;" parent="1" source="4" target="5" edge="1">
                    <mxGeometry relative="1" as="geometry"/>
                </mxCell>
                <mxCell id="23" style="edgeStyle=none;html=1;entryX=0.5;entryY=1;entryDx=0;entryDy=0;shadow=0;strokeColor=#d79b00;strokeWidth=15;fontSize=33;fillColor=#ffcd28;gradientColor=#ffa500;rounded=1;" parent="1" source="5" target="3" edge="1">
                    <mxGeometry relative="1" as="geometry"/>
                </mxCell>
                <mxCell id="5" value="&lt;font style=&quot;&quot;&gt;&lt;font style=&quot;font-size: 33px;&quot;&gt;Lorem ipsum dolor sit amet, consectetur adipiscing elit. Integer eget orci magna. Fusce vel sapien laoreet magna suscipit placerat quis ac lacus. Aenean feugiat elit nulla, id condimentum orci eleifend eget.&lt;/font&gt;&lt;br&gt;&lt;/font&gt;" style="shape=note;whiteSpace=wrap;html=1;backgroundOutline=1;fontColor=#000000;darkOpacity=0.05;fillColor=#FFF9B2;strokeColor=none;fillStyle=solid;direction=west;gradientDirection=north;gradientColor=#FFF2A1;shadow=1;size=20;pointerEvents=1;rounded=1;fontSize=32;" parent="1" vertex="1">
                    <mxGeometry x="970" y="450" width="550" height="360" as="geometry"/>
                </mxCell>
                <mxCell id="6" value="&lt;font style=&quot;font-size: 26px;&quot;&gt;&lt;br&gt;&lt;/font&gt;" style="shape=note;whiteSpace=wrap;html=1;backgroundOutline=1;fontColor=#000000;darkOpacity=0.05;fillColor=#FFF9B2;strokeColor=none;fillStyle=solid;direction=west;gradientDirection=north;gradientColor=#FFF2A1;shadow=1;size=20;pointerEvents=1;rounded=1;fontSize=32;" parent="1" vertex="1">
                    <mxGeometry x="70" y="450" width="550" height="360" as="geometry"/>
                </mxCell>
                <mxCell id="9" value="" style="html=1;shadow=0;dashed=0;align=center;verticalAlign=middle;shape=mxgraph.arrows2.arrow;dy=0;dx=30;notch=45.56;rounded=1;strokeColor=#FFFFFF;fontSize=33;gradientColor=none;fillColor=#43294A;" parent="1" vertex="1">
                    <mxGeometry x="710" y="570" width="170" height="110" as="geometry"/>
                </mxCell>
                <mxCell id="14" style="edgeStyle=none;html=1;exitX=0;exitY=1;exitDx=0;exitDy=0;entryX=0.5;entryY=1;entryDx=0;entryDy=0;fontSize=33;strokeWidth=15;entryPerimeter=0;shadow=0;fillColor=#647687;strokeColor=#314354;rounded=1;" parent="1" source="4" target="6" edge="1">
                    <mxGeometry relative="1" as="geometry"/>
                </mxCell>
                <mxCell id="15" value="POST DATA&amp;nbsp;" style="text;strokeColor=none;align=center;fillColor=none;html=1;verticalAlign=middle;whiteSpace=wrap;rounded=1;shadow=1;fontSize=33;rotation=5;fontColor=#000000;" parent="1" vertex="1">
                    <mxGeometry x="340" y="135" width="290" height="30" as="geometry"/>
                </mxCell>
                <mxCell id="17" value="Creates an Empty Clipboard" style="text;html=1;strokeColor=none;fillColor=none;align=center;verticalAlign=middle;whiteSpace=wrap;rounded=1;shadow=1;fontSize=33;rotation=340;fontColor=#000000;" parent="1" vertex="1">
                    <mxGeometry x="430" y="310" width="248.3" height="30" as="geometry"/>
                </mxCell>
                <mxCell id="18" value="Transfers the data" style="text;html=1;strokeColor=none;fillColor=none;align=center;verticalAlign=middle;whiteSpace=wrap;rounded=1;shadow=1;fontSize=33;fontColor=#000000;" parent="1" vertex="1">
                    <mxGeometry x="700" y="510" width="170" height="30" as="geometry"/>
                </mxCell>
                <mxCell id="21" value="GET DATA" style="text;strokeColor=none;align=center;fillColor=none;html=1;verticalAlign=middle;whiteSpace=wrap;rounded=1;shadow=1;fontSize=33;rotation=354;fontColor=#000000;" parent="1" vertex="1">
                    <mxGeometry x="1010" y="135" width="230" height="30" as="geometry"/>
                </mxCell>
                <mxCell id="4" value="CL1p.net SERVER" style="rhombus;whiteSpace=wrap;html=1;strokeColor=#6F0000;fontSize=32;fillColor=#a20025;fontColor=#ffffff;rounded=1;shadow=1;double=0;" parent="1" vertex="1">
                    <mxGeometry x="685" y="150" width="230" height="220" as="geometry"/>
                </mxCell>
                <mxCell id="24" value="Finds the Clipboard" style="text;html=1;strokeColor=none;fillColor=none;align=center;verticalAlign=middle;whiteSpace=wrap;rounded=1;shadow=1;fontSize=33;rotation=20;fontColor=#0A0A0A;" parent="1" vertex="1">
                    <mxGeometry x="915" y="310" width="250" height="30" as="geometry"/>
                </mxCell>
                <mxCell id="25" value="Transfers the DATA" style="text;html=1;strokeColor=none;fillColor=none;align=center;verticalAlign=middle;whiteSpace=wrap;rounded=1;shadow=1;fontSize=33;rotation=-60;fontColor=#000000;" parent="1" vertex="1">
                    <mxGeometry x="1300" y="340" width="60" height="30" as="geometry"/>
                </mxCell>
            </root>
        </mxGraphModel>
    </diagram>
    <diagram name="Verify if the Clipboard Exist" id="yEhXIUvPcBe87ZvgIITH">
        <mxGraphModel dx="1483" dy="1220" grid="0" gridSize="12" guides="1" tooltips="1" connect="1" arrows="1" fold="1" page="1" pageScale="1" pageWidth="1600" pageHeight="900" background="#ffffff" math="0" shadow="1">
            <root>
                <object label="" id="ZlVbmZEH_Nu3H1Lsf_GX-0">
                    <mxCell/>
                </object>
                <mxCell id="ZlVbmZEH_Nu3H1Lsf_GX-1" parent="ZlVbmZEH_Nu3H1Lsf_GX-0"/>
                <mxCell id="ZlVbmZEH_Nu3H1Lsf_GX-2" style="edgeStyle=none;html=1;entryX=0;entryY=0;entryDx=0;entryDy=0;fontSize=33;strokeWidth=15;strokeColor=#000000;rounded=1;" edge="1" parent="ZlVbmZEH_Nu3H1Lsf_GX-1" source="ZlVbmZEH_Nu3H1Lsf_GX-3" target="ZlVbmZEH_Nu3H1Lsf_GX-16">
                    <mxGeometry relative="1" as="geometry"/>
                </mxCell>
                <mxCell id="ZlVbmZEH_Nu3H1Lsf_GX-3" value="&lt;font style=&quot;font-size: 32px;&quot;&gt;CLIENT 1&lt;/font&gt;" style="whiteSpace=wrap;html=1;fillColor=#114174;strokeColor=#36393d;rounded=1;" vertex="1" parent="ZlVbmZEH_Nu3H1Lsf_GX-1">
                    <mxGeometry x="50" y="50" width="200" height="200" as="geometry"/>
                </mxCell>
                <mxCell id="ZlVbmZEH_Nu3H1Lsf_GX-6" style="edgeStyle=none;html=1;exitX=1;exitY=1;exitDx=0;exitDy=0;entryX=0.5;entryY=1;entryDx=0;entryDy=0;entryPerimeter=0;shadow=0;strokeColor=#996185;strokeWidth=15;fontSize=33;fillColor=#e6d0de;gradientColor=#d5739d;rounded=1;" edge="1" parent="ZlVbmZEH_Nu3H1Lsf_GX-1" source="ZlVbmZEH_Nu3H1Lsf_GX-16" target="ZlVbmZEH_Nu3H1Lsf_GX-8">
                    <mxGeometry relative="1" as="geometry"/>
                </mxCell>
                <mxCell id="ZlVbmZEH_Nu3H1Lsf_GX-8" value="&lt;font style=&quot;&quot;&gt;&lt;font style=&quot;font-size: 33px;&quot;&gt;Lorem ipsum dolor sit amet, consectetur adipiscing elit. Integer eget orci magna. Fusce vel sapien laoreet magna suscipit placerat quis ac lacus. Aenean feugiat elit nulla, id condimentum orci eleifend eget.&lt;/font&gt;&lt;br&gt;&lt;/font&gt;" style="shape=note;whiteSpace=wrap;html=1;backgroundOutline=1;fontColor=#000000;darkOpacity=0.05;fillColor=#FFF9B2;strokeColor=none;fillStyle=solid;direction=west;gradientDirection=north;gradientColor=#FFF2A1;shadow=1;size=20;pointerEvents=1;rounded=1;fontSize=32;" vertex="1" parent="ZlVbmZEH_Nu3H1Lsf_GX-1">
                    <mxGeometry x="970" y="450" width="550" height="360" as="geometry"/>
                </mxCell>
                <mxCell id="ZlVbmZEH_Nu3H1Lsf_GX-9" value="&lt;font style=&quot;font-size: 26px;&quot;&gt;&lt;br&gt;&lt;/font&gt;" style="shape=note;whiteSpace=wrap;html=1;backgroundOutline=1;fontColor=#000000;darkOpacity=0.05;fillColor=#FFF9B2;strokeColor=none;fillStyle=solid;direction=west;gradientDirection=north;gradientColor=#FFF2A1;shadow=1;size=20;pointerEvents=1;rounded=1;fontSize=32;" vertex="1" parent="ZlVbmZEH_Nu3H1Lsf_GX-1">
                    <mxGeometry x="70" y="450" width="550" height="360" as="geometry"/>
                </mxCell>
                <mxCell id="ZlVbmZEH_Nu3H1Lsf_GX-11" style="edgeStyle=none;html=1;exitX=0;exitY=1;exitDx=0;exitDy=0;entryX=0.5;entryY=1;entryDx=0;entryDy=0;fontSize=33;strokeWidth=15;entryPerimeter=0;shadow=0;fillColor=#647687;strokeColor=#314354;rounded=1;" edge="1" parent="ZlVbmZEH_Nu3H1Lsf_GX-1" source="ZlVbmZEH_Nu3H1Lsf_GX-16" target="ZlVbmZEH_Nu3H1Lsf_GX-9">
                    <mxGeometry relative="1" as="geometry"/>
                </mxCell>
                <mxCell id="ZlVbmZEH_Nu3H1Lsf_GX-12" value="GET DATA" style="text;strokeColor=none;align=center;fillColor=none;html=1;verticalAlign=middle;whiteSpace=wrap;rounded=1;shadow=1;fontSize=33;rotation=1;fontColor=#000000;" vertex="1" parent="ZlVbmZEH_Nu3H1Lsf_GX-1">
                    <mxGeometry x="332" y="122" width="290" height="30" as="geometry"/>
                </mxCell>
                <mxCell id="ZlVbmZEH_Nu3H1Lsf_GX-13" value="If the Clipboard is empty, returns true" style="text;html=1;strokeColor=none;fillColor=none;align=center;verticalAlign=middle;whiteSpace=wrap;rounded=1;shadow=1;fontSize=33;rotation=337;fontColor=#000000;" vertex="1" parent="ZlVbmZEH_Nu3H1Lsf_GX-1">
                    <mxGeometry x="387" y="297" width="301" height="30" as="geometry"/>
                </mxCell>
                <mxCell id="ZlVbmZEH_Nu3H1Lsf_GX-16" value="CL1p.net SERVER" style="rhombus;whiteSpace=wrap;html=1;strokeColor=#6F0000;fontSize=32;fillColor=#a20025;fontColor=#ffffff;rounded=1;shadow=1;double=0;" vertex="1" parent="ZlVbmZEH_Nu3H1Lsf_GX-1">
                    <mxGeometry x="671" y="128" width="230" height="220" as="geometry"/>
                </mxCell>
                <mxCell id="ZlVbmZEH_Nu3H1Lsf_GX-17" value="If any DATA exist, returns false" style="text;html=1;strokeColor=none;fillColor=none;align=center;verticalAlign=middle;whiteSpace=wrap;rounded=1;shadow=1;fontSize=33;rotation=23;fontColor=#0A0A0A;" vertex="1" parent="ZlVbmZEH_Nu3H1Lsf_GX-1">
                    <mxGeometry x="890" y="310" width="365" height="30" as="geometry"/>
                </mxCell>
            </root>
        </mxGraphModel>
    </diagram>
    <diagram name="Deletion of a Clipboard" id="H8__eVsOyb06kDAA31cd">
        <mxGraphModel dx="1730" dy="1423" grid="0" gridSize="12" guides="1" tooltips="1" connect="1" arrows="1" fold="1" page="1" pageScale="1" pageWidth="1600" pageHeight="900" background="#ffffff" math="0" shadow="1">
            <root>
                <object label="" id="M_eZTUymNwPKW0tBoiiC-0">
                    <mxCell/>
                </object>
                <mxCell id="M_eZTUymNwPKW0tBoiiC-1" parent="M_eZTUymNwPKW0tBoiiC-0"/>
                <mxCell id="M_eZTUymNwPKW0tBoiiC-2" style="edgeStyle=none;html=1;fontSize=33;strokeWidth=15;strokeColor=#000000;rounded=1;entryX=1;entryY=0;entryDx=0;entryDy=0;" edge="1" parent="M_eZTUymNwPKW0tBoiiC-1" source="M_eZTUymNwPKW0tBoiiC-3" target="M_eZTUymNwPKW0tBoiiC-10">
                    <mxGeometry relative="1" as="geometry">
                        <mxPoint x="724" y="118" as="targetPoint"/>
                    </mxGeometry>
                </mxCell>
                <mxCell id="M_eZTUymNwPKW0tBoiiC-3" value="&lt;font style=&quot;font-size: 32px;&quot;&gt;CLIENT 1&lt;/font&gt;" style="whiteSpace=wrap;html=1;fillColor=#114174;strokeColor=#36393d;rounded=1;" vertex="1" parent="M_eZTUymNwPKW0tBoiiC-1">
                    <mxGeometry x="1354" y="41" width="200" height="200" as="geometry"/>
                </mxCell>
                <mxCell id="M_eZTUymNwPKW0tBoiiC-4" style="edgeStyle=none;html=1;exitX=0;exitY=1;exitDx=0;exitDy=0;entryX=0.5;entryY=1;entryDx=0;entryDy=0;entryPerimeter=0;shadow=0;strokeColor=#996185;strokeWidth=15;fontSize=33;fillColor=#e6d0de;gradientColor=#d5739d;rounded=1;" edge="1" parent="M_eZTUymNwPKW0tBoiiC-1" source="M_eZTUymNwPKW0tBoiiC-10" target="M_eZTUymNwPKW0tBoiiC-5">
                    <mxGeometry relative="1" as="geometry"/>
                </mxCell>
                <mxCell id="M_eZTUymNwPKW0tBoiiC-5" value="&lt;font style=&quot;&quot;&gt;&lt;font style=&quot;font-size: 33px;&quot;&gt;Lorem ipsum dolor sit amet, consectetur adipiscing elit. Integer eget orci magna. Fusce vel sapien laoreet magna suscipit placerat quis ac lacus. Aenean feugiat elit nulla, id condimentum orci eleifend eget.&lt;/font&gt;&lt;br&gt;&lt;/font&gt;" style="shape=note;whiteSpace=wrap;html=1;backgroundOutline=1;fontColor=#000000;darkOpacity=0.05;fillColor=#FFF9B2;strokeColor=none;fillStyle=solid;direction=west;gradientDirection=north;gradientColor=#FFF2A1;shadow=1;size=20;pointerEvents=1;rounded=1;fontSize=32;" vertex="1" parent="M_eZTUymNwPKW0tBoiiC-1">
                    <mxGeometry x="62" y="491" width="550" height="360" as="geometry"/>
                </mxCell>
                <mxCell id="M_eZTUymNwPKW0tBoiiC-6" value="&lt;font style=&quot;font-size: 26px;&quot;&gt;&lt;br&gt;&lt;/font&gt;" style="shape=note;whiteSpace=wrap;html=1;backgroundOutline=1;fontColor=#000000;darkOpacity=0.05;fillColor=#FFF9B2;strokeColor=none;fillStyle=solid;direction=west;gradientDirection=north;gradientColor=#FFF2A1;shadow=1;size=20;pointerEvents=1;rounded=1;fontSize=32;" vertex="1" parent="M_eZTUymNwPKW0tBoiiC-1">
                    <mxGeometry x="927" y="474" width="550" height="360" as="geometry"/>
                </mxCell>
                <mxCell id="M_eZTUymNwPKW0tBoiiC-8" value="POST Deletion Key" style="text;strokeColor=none;align=center;fillColor=none;html=1;verticalAlign=middle;whiteSpace=wrap;rounded=1;shadow=1;fontSize=33;rotation=1;fontColor=#000000;" vertex="1" parent="M_eZTUymNwPKW0tBoiiC-1">
                    <mxGeometry x="959" y="89" width="290" height="30" as="geometry"/>
                </mxCell>
                <mxCell id="M_eZTUymNwPKW0tBoiiC-10" value="CL1p.net SERVER" style="rhombus;whiteSpace=wrap;html=1;strokeColor=#6F0000;fontSize=32;fillColor=#a20025;fontColor=#ffffff;rounded=1;shadow=1;double=0;" vertex="1" parent="M_eZTUymNwPKW0tBoiiC-1">
                    <mxGeometry x="640" y="77" width="230" height="220" as="geometry"/>
                </mxCell>
                <mxCell id="M_eZTUymNwPKW0tBoiiC-11" value="Execute the Deletion code on ./deleteCl1p.jsp" style="text;html=1;strokeColor=none;fillColor=none;align=center;verticalAlign=middle;whiteSpace=wrap;rounded=1;shadow=1;fontSize=33;rotation=326;fontColor=#0A0A0A;" vertex="1" parent="M_eZTUymNwPKW0tBoiiC-1">
                    <mxGeometry x="310" y="295" width="365" height="30" as="geometry"/>
                </mxCell>
                <mxCell id="hcvZrlHyjun23s4xOk0m-1" value="" style="html=1;shadow=0;dashed=0;align=center;verticalAlign=middle;shape=mxgraph.arrows2.arrow;dy=0;dx=30;notch=30;" vertex="1" parent="M_eZTUymNwPKW0tBoiiC-1">
                    <mxGeometry x="700" y="602" width="164" height="113" as="geometry"/>
                </mxCell>
                <mxCell id="hcvZrlHyjun23s4xOk0m-2" value="Clipboard cleared" style="text;html=1;strokeColor=none;fillColor=none;align=center;verticalAlign=middle;whiteSpace=wrap;rounded=1;shadow=1;fontSize=33;rotation=0;fontColor=#0A0A0A;direction=west;" vertex="1" parent="M_eZTUymNwPKW0tBoiiC-1">
                    <mxGeometry x="1008" y="425" width="365" height="30" as="geometry"/>
                </mxCell>
                <mxCell id="hcvZrlHyjun23s4xOk0m-3" value="When you are creating a Clipboard, if the time is more than a day it will give you a deletion key, which can be used to delete that Cl1p" style="text;html=1;strokeColor=none;fillColor=none;align=center;verticalAlign=middle;whiteSpace=wrap;rounded=1;shadow=1;fontSize=33;rotation=0;fontColor=#0A0A0A;direction=west;" vertex="1" parent="M_eZTUymNwPKW0tBoiiC-1">
                    <mxGeometry x="31" y="128" width="365" height="30" as="geometry"/>
                </mxCell>
            </root>
        </mxGraphModel>
    </diagram>
</mxfile>